<mxfile host="app.diagrams.net" modified="2020-11-15T13:31:14.520Z" agent="5.0 (Windows NT 10.0; Win64; x64) AppleWebKit/537.36 (KHTML, like Gecko) Chrome/86.0.4240.198 Safari/537.36 Edg/86.0.622.69" etag="w1YB6x1b6kqJk3YfRJeY" version="13.9.8" type="github" pages="2">
  <diagram id="Y6KTWnDbhFmh0sTXdoiS" name="zad1">
    <mxGraphModel dx="1483" dy="829" grid="1" gridSize="10" guides="1" tooltips="1" connect="1" arrows="1" fold="1" page="1" pageScale="1" pageWidth="850" pageHeight="1100" math="0" shadow="0">
      <root>
        <mxCell id="Z4H-jSg5NoNmxzH4rwCG-0" />
        <mxCell id="Z4H-jSg5NoNmxzH4rwCG-1" parent="Z4H-jSg5NoNmxzH4rwCG-0" />
        <mxCell id="Z4H-jSg5NoNmxzH4rwCG-4" value="" style="edgeStyle=orthogonalEdgeStyle;rounded=0;orthogonalLoop=1;jettySize=auto;html=1;" edge="1" parent="Z4H-jSg5NoNmxzH4rwCG-1" source="Z4H-jSg5NoNmxzH4rwCG-2" target="Z4H-jSg5NoNmxzH4rwCG-3">
          <mxGeometry relative="1" as="geometry" />
        </mxCell>
        <mxCell id="Z4H-jSg5NoNmxzH4rwCG-2" value="Start" style="ellipse;whiteSpace=wrap;html=1;" vertex="1" parent="Z4H-jSg5NoNmxzH4rwCG-1">
          <mxGeometry x="110" y="70" width="120" height="60" as="geometry" />
        </mxCell>
        <mxCell id="Z4H-jSg5NoNmxzH4rwCG-9" style="edgeStyle=orthogonalEdgeStyle;rounded=0;orthogonalLoop=1;jettySize=auto;html=1;entryX=0.5;entryY=0;entryDx=0;entryDy=0;" edge="1" parent="Z4H-jSg5NoNmxzH4rwCG-1" source="Z4H-jSg5NoNmxzH4rwCG-3" target="Z4H-jSg5NoNmxzH4rwCG-7">
          <mxGeometry relative="1" as="geometry" />
        </mxCell>
        <mxCell id="Z4H-jSg5NoNmxzH4rwCG-3" value="n" style="shape=trapezoid;perimeter=trapezoidPerimeter;whiteSpace=wrap;html=1;fixedSize=1;" vertex="1" parent="Z4H-jSg5NoNmxzH4rwCG-1">
          <mxGeometry x="110" y="160" width="120" height="60" as="geometry" />
        </mxCell>
        <mxCell id="Z4H-jSg5NoNmxzH4rwCG-12" value="" style="edgeStyle=orthogonalEdgeStyle;rounded=0;orthogonalLoop=1;jettySize=auto;html=1;" edge="1" parent="Z4H-jSg5NoNmxzH4rwCG-1" source="Z4H-jSg5NoNmxzH4rwCG-5" target="Z4H-jSg5NoNmxzH4rwCG-11">
          <mxGeometry relative="1" as="geometry" />
        </mxCell>
        <mxCell id="Z4H-jSg5NoNmxzH4rwCG-5" value="i=1, i&amp;lt;=n, i++" style="whiteSpace=wrap;html=1;" vertex="1" parent="Z4H-jSg5NoNmxzH4rwCG-1">
          <mxGeometry x="110" y="330" width="120" height="60" as="geometry" />
        </mxCell>
        <mxCell id="Z4H-jSg5NoNmxzH4rwCG-10" style="edgeStyle=orthogonalEdgeStyle;rounded=0;orthogonalLoop=1;jettySize=auto;html=1;entryX=0.5;entryY=0;entryDx=0;entryDy=0;" edge="1" parent="Z4H-jSg5NoNmxzH4rwCG-1" source="Z4H-jSg5NoNmxzH4rwCG-7" target="Z4H-jSg5NoNmxzH4rwCG-5">
          <mxGeometry relative="1" as="geometry" />
        </mxCell>
        <mxCell id="Z4H-jSg5NoNmxzH4rwCG-7" value="res = 1" style="rounded=0;whiteSpace=wrap;html=1;" vertex="1" parent="Z4H-jSg5NoNmxzH4rwCG-1">
          <mxGeometry x="110" y="240" width="120" height="60" as="geometry" />
        </mxCell>
        <mxCell id="Z4H-jSg5NoNmxzH4rwCG-14" value="" style="edgeStyle=orthogonalEdgeStyle;rounded=0;orthogonalLoop=1;jettySize=auto;html=1;" edge="1" parent="Z4H-jSg5NoNmxzH4rwCG-1" source="Z4H-jSg5NoNmxzH4rwCG-11" target="Z4H-jSg5NoNmxzH4rwCG-13">
          <mxGeometry relative="1" as="geometry" />
        </mxCell>
        <mxCell id="Z4H-jSg5NoNmxzH4rwCG-11" value="sum += 1/i" style="whiteSpace=wrap;html=1;" vertex="1" parent="Z4H-jSg5NoNmxzH4rwCG-1">
          <mxGeometry x="110" y="420" width="120" height="60" as="geometry" />
        </mxCell>
        <mxCell id="Z4H-jSg5NoNmxzH4rwCG-15" style="edgeStyle=orthogonalEdgeStyle;rounded=0;orthogonalLoop=1;jettySize=auto;html=1;entryX=0;entryY=0.5;entryDx=0;entryDy=0;exitX=0;exitY=0.5;exitDx=0;exitDy=0;" edge="1" parent="Z4H-jSg5NoNmxzH4rwCG-1" source="Z4H-jSg5NoNmxzH4rwCG-13" target="Z4H-jSg5NoNmxzH4rwCG-5">
          <mxGeometry relative="1" as="geometry">
            <Array as="points">
              <mxPoint x="50" y="555" />
              <mxPoint x="50" y="360" />
            </Array>
          </mxGeometry>
        </mxCell>
        <mxCell id="Z4H-jSg5NoNmxzH4rwCG-19" style="edgeStyle=orthogonalEdgeStyle;rounded=0;orthogonalLoop=1;jettySize=auto;html=1;entryX=0.5;entryY=0;entryDx=0;entryDy=0;" edge="1" parent="Z4H-jSg5NoNmxzH4rwCG-1" source="Z4H-jSg5NoNmxzH4rwCG-13" target="Z4H-jSg5NoNmxzH4rwCG-18">
          <mxGeometry relative="1" as="geometry" />
        </mxCell>
        <mxCell id="Z4H-jSg5NoNmxzH4rwCG-13" value="" style="rhombus;whiteSpace=wrap;html=1;" vertex="1" parent="Z4H-jSg5NoNmxzH4rwCG-1">
          <mxGeometry x="145" y="530" width="50" height="50" as="geometry" />
        </mxCell>
        <mxCell id="Z4H-jSg5NoNmxzH4rwCG-21" value="" style="edgeStyle=orthogonalEdgeStyle;rounded=0;orthogonalLoop=1;jettySize=auto;html=1;" edge="1" parent="Z4H-jSg5NoNmxzH4rwCG-1" source="Z4H-jSg5NoNmxzH4rwCG-18" target="Z4H-jSg5NoNmxzH4rwCG-20">
          <mxGeometry relative="1" as="geometry" />
        </mxCell>
        <mxCell id="Z4H-jSg5NoNmxzH4rwCG-18" value="sum" style="verticalLabelPosition=middle;verticalAlign=middle;html=1;shape=trapezoid;perimeter=trapezoidPerimeter;whiteSpace=wrap;size=0.23;arcSize=10;flipV=1;labelPosition=center;align=center;" vertex="1" parent="Z4H-jSg5NoNmxzH4rwCG-1">
          <mxGeometry x="120" y="600" width="100" height="60" as="geometry" />
        </mxCell>
        <mxCell id="Z4H-jSg5NoNmxzH4rwCG-20" value="Kraj" style="ellipse;whiteSpace=wrap;html=1;arcSize=10;" vertex="1" parent="Z4H-jSg5NoNmxzH4rwCG-1">
          <mxGeometry x="110" y="700" width="120" height="60" as="geometry" />
        </mxCell>
        <mxCell id="Z4H-jSg5NoNmxzH4rwCG-37" value="" style="edgeStyle=orthogonalEdgeStyle;rounded=0;orthogonalLoop=1;jettySize=auto;html=1;" edge="1" parent="Z4H-jSg5NoNmxzH4rwCG-1" source="Z4H-jSg5NoNmxzH4rwCG-38" target="Z4H-jSg5NoNmxzH4rwCG-40">
          <mxGeometry relative="1" as="geometry" />
        </mxCell>
        <mxCell id="Z4H-jSg5NoNmxzH4rwCG-38" value="Start" style="ellipse;whiteSpace=wrap;html=1;" vertex="1" parent="Z4H-jSg5NoNmxzH4rwCG-1">
          <mxGeometry x="490" y="70" width="120" height="60" as="geometry" />
        </mxCell>
        <mxCell id="Z4H-jSg5NoNmxzH4rwCG-54" value="" style="edgeStyle=orthogonalEdgeStyle;rounded=0;orthogonalLoop=1;jettySize=auto;html=1;" edge="1" parent="Z4H-jSg5NoNmxzH4rwCG-1" source="Z4H-jSg5NoNmxzH4rwCG-40" target="Z4H-jSg5NoNmxzH4rwCG-53">
          <mxGeometry relative="1" as="geometry" />
        </mxCell>
        <mxCell id="Z4H-jSg5NoNmxzH4rwCG-40" value="n" style="shape=trapezoid;perimeter=trapezoidPerimeter;whiteSpace=wrap;html=1;fixedSize=1;" vertex="1" parent="Z4H-jSg5NoNmxzH4rwCG-1">
          <mxGeometry x="490" y="160" width="120" height="60" as="geometry" />
        </mxCell>
        <mxCell id="Z4H-jSg5NoNmxzH4rwCG-41" value="" style="edgeStyle=orthogonalEdgeStyle;rounded=0;orthogonalLoop=1;jettySize=auto;html=1;" edge="1" parent="Z4H-jSg5NoNmxzH4rwCG-1" source="Z4H-jSg5NoNmxzH4rwCG-42" target="Z4H-jSg5NoNmxzH4rwCG-46">
          <mxGeometry relative="1" as="geometry" />
        </mxCell>
        <mxCell id="Z4H-jSg5NoNmxzH4rwCG-42" value="i=1, i&amp;lt;=n, i++" style="whiteSpace=wrap;html=1;" vertex="1" parent="Z4H-jSg5NoNmxzH4rwCG-1">
          <mxGeometry x="490" y="480" width="120" height="60" as="geometry" />
        </mxCell>
        <mxCell id="Z4H-jSg5NoNmxzH4rwCG-43" style="edgeStyle=orthogonalEdgeStyle;rounded=0;orthogonalLoop=1;jettySize=auto;html=1;entryX=0.5;entryY=0;entryDx=0;entryDy=0;" edge="1" parent="Z4H-jSg5NoNmxzH4rwCG-1" source="Z4H-jSg5NoNmxzH4rwCG-44" target="Z4H-jSg5NoNmxzH4rwCG-42">
          <mxGeometry relative="1" as="geometry" />
        </mxCell>
        <mxCell id="Z4H-jSg5NoNmxzH4rwCG-44" value="res = 1" style="rounded=0;whiteSpace=wrap;html=1;" vertex="1" parent="Z4H-jSg5NoNmxzH4rwCG-1">
          <mxGeometry x="490" y="370" width="120" height="60" as="geometry" />
        </mxCell>
        <mxCell id="Z4H-jSg5NoNmxzH4rwCG-45" value="" style="edgeStyle=orthogonalEdgeStyle;rounded=0;orthogonalLoop=1;jettySize=auto;html=1;" edge="1" parent="Z4H-jSg5NoNmxzH4rwCG-1" source="Z4H-jSg5NoNmxzH4rwCG-46" target="Z4H-jSg5NoNmxzH4rwCG-49">
          <mxGeometry relative="1" as="geometry" />
        </mxCell>
        <mxCell id="Z4H-jSg5NoNmxzH4rwCG-46" value="res = res*i" style="whiteSpace=wrap;html=1;" vertex="1" parent="Z4H-jSg5NoNmxzH4rwCG-1">
          <mxGeometry x="490" y="570" width="120" height="60" as="geometry" />
        </mxCell>
        <mxCell id="Z4H-jSg5NoNmxzH4rwCG-47" style="edgeStyle=orthogonalEdgeStyle;rounded=0;orthogonalLoop=1;jettySize=auto;html=1;entryX=0;entryY=0.5;entryDx=0;entryDy=0;exitX=0;exitY=0.5;exitDx=0;exitDy=0;" edge="1" parent="Z4H-jSg5NoNmxzH4rwCG-1" source="Z4H-jSg5NoNmxzH4rwCG-49" target="Z4H-jSg5NoNmxzH4rwCG-42">
          <mxGeometry relative="1" as="geometry">
            <Array as="points">
              <mxPoint x="430" y="705" />
              <mxPoint x="430" y="510" />
            </Array>
          </mxGeometry>
        </mxCell>
        <mxCell id="Z4H-jSg5NoNmxzH4rwCG-48" style="edgeStyle=orthogonalEdgeStyle;rounded=0;orthogonalLoop=1;jettySize=auto;html=1;entryX=0.5;entryY=0;entryDx=0;entryDy=0;" edge="1" parent="Z4H-jSg5NoNmxzH4rwCG-1" source="Z4H-jSg5NoNmxzH4rwCG-49" target="Z4H-jSg5NoNmxzH4rwCG-51">
          <mxGeometry relative="1" as="geometry" />
        </mxCell>
        <mxCell id="Z4H-jSg5NoNmxzH4rwCG-49" value="" style="rhombus;whiteSpace=wrap;html=1;" vertex="1" parent="Z4H-jSg5NoNmxzH4rwCG-1">
          <mxGeometry x="525" y="680" width="50" height="50" as="geometry" />
        </mxCell>
        <mxCell id="Z4H-jSg5NoNmxzH4rwCG-50" value="" style="edgeStyle=orthogonalEdgeStyle;rounded=0;orthogonalLoop=1;jettySize=auto;html=1;" edge="1" parent="Z4H-jSg5NoNmxzH4rwCG-1" source="Z4H-jSg5NoNmxzH4rwCG-51" target="Z4H-jSg5NoNmxzH4rwCG-52">
          <mxGeometry relative="1" as="geometry" />
        </mxCell>
        <mxCell id="Z4H-jSg5NoNmxzH4rwCG-51" value="1/res" style="verticalLabelPosition=middle;verticalAlign=middle;html=1;shape=trapezoid;perimeter=trapezoidPerimeter;whiteSpace=wrap;size=0.23;arcSize=10;flipV=1;labelPosition=center;align=center;" vertex="1" parent="Z4H-jSg5NoNmxzH4rwCG-1">
          <mxGeometry x="500" y="750" width="100" height="60" as="geometry" />
        </mxCell>
        <mxCell id="Z4H-jSg5NoNmxzH4rwCG-52" value="Kraj" style="ellipse;whiteSpace=wrap;html=1;arcSize=10;" vertex="1" parent="Z4H-jSg5NoNmxzH4rwCG-1">
          <mxGeometry x="490" y="850" width="120" height="60" as="geometry" />
        </mxCell>
        <mxCell id="Z4H-jSg5NoNmxzH4rwCG-55" value="" style="edgeStyle=orthogonalEdgeStyle;rounded=0;orthogonalLoop=1;jettySize=auto;html=1;" edge="1" parent="Z4H-jSg5NoNmxzH4rwCG-1" source="Z4H-jSg5NoNmxzH4rwCG-53" target="Z4H-jSg5NoNmxzH4rwCG-44">
          <mxGeometry relative="1" as="geometry" />
        </mxCell>
        <mxCell id="Z4H-jSg5NoNmxzH4rwCG-57" value="" style="edgeStyle=orthogonalEdgeStyle;rounded=0;orthogonalLoop=1;jettySize=auto;html=1;entryX=0.5;entryY=0;entryDx=0;entryDy=0;" edge="1" parent="Z4H-jSg5NoNmxzH4rwCG-1" source="Z4H-jSg5NoNmxzH4rwCG-53" target="Z4H-jSg5NoNmxzH4rwCG-56">
          <mxGeometry relative="1" as="geometry" />
        </mxCell>
        <mxCell id="Z4H-jSg5NoNmxzH4rwCG-53" value="n==0" style="rhombus;whiteSpace=wrap;html=1;" vertex="1" parent="Z4H-jSg5NoNmxzH4rwCG-1">
          <mxGeometry x="510" y="240" width="80" height="80" as="geometry" />
        </mxCell>
        <mxCell id="Z4H-jSg5NoNmxzH4rwCG-60" style="edgeStyle=orthogonalEdgeStyle;rounded=0;orthogonalLoop=1;jettySize=auto;html=1;entryX=1;entryY=0.5;entryDx=0;entryDy=0;" edge="1" parent="Z4H-jSg5NoNmxzH4rwCG-1" source="Z4H-jSg5NoNmxzH4rwCG-56" target="Z4H-jSg5NoNmxzH4rwCG-52">
          <mxGeometry relative="1" as="geometry">
            <Array as="points">
              <mxPoint x="700" y="880" />
            </Array>
          </mxGeometry>
        </mxCell>
        <mxCell id="Z4H-jSg5NoNmxzH4rwCG-56" value="Rezultat je 1" style="verticalLabelPosition=middle;verticalAlign=middle;html=1;shape=trapezoid;perimeter=trapezoidPerimeter;whiteSpace=wrap;size=0.23;arcSize=10;flipV=1;labelPosition=center;align=center;" vertex="1" parent="Z4H-jSg5NoNmxzH4rwCG-1">
          <mxGeometry x="650" y="750" width="100" height="60" as="geometry" />
        </mxCell>
        <mxCell id="Z4H-jSg5NoNmxzH4rwCG-58" value="DA" style="text;html=1;align=center;verticalAlign=middle;resizable=0;points=[];autosize=1;" vertex="1" parent="Z4H-jSg5NoNmxzH4rwCG-1">
          <mxGeometry x="630" y="260" width="30" height="20" as="geometry" />
        </mxCell>
        <mxCell id="Z4H-jSg5NoNmxzH4rwCG-59" value="NE" style="text;html=1;align=center;verticalAlign=middle;resizable=0;points=[];autosize=1;" vertex="1" parent="Z4H-jSg5NoNmxzH4rwCG-1">
          <mxGeometry x="520" y="320" width="30" height="20" as="geometry" />
        </mxCell>
      </root>
    </mxGraphModel>
  </diagram>
  <diagram id="2JP7y5DITdR7F26rtOKT" name="zad2">
    <mxGraphModel dx="1038" dy="580" grid="1" gridSize="10" guides="1" tooltips="1" connect="1" arrows="1" fold="1" page="1" pageScale="1" pageWidth="850" pageHeight="1100" math="0" shadow="0">
      <root>
        <mxCell id="u8WKtzOD6fE29-YzB9qV-0" />
        <mxCell id="u8WKtzOD6fE29-YzB9qV-1" parent="u8WKtzOD6fE29-YzB9qV-0" />
        <mxCell id="RpDPlO7MAo3XVQ1fKCgm-0" value="" style="edgeStyle=orthogonalEdgeStyle;rounded=0;orthogonalLoop=1;jettySize=auto;html=1;" edge="1" parent="u8WKtzOD6fE29-YzB9qV-1" source="RpDPlO7MAo3XVQ1fKCgm-1" target="RpDPlO7MAo3XVQ1fKCgm-3">
          <mxGeometry relative="1" as="geometry" />
        </mxCell>
        <mxCell id="RpDPlO7MAo3XVQ1fKCgm-1" value="Start" style="ellipse;whiteSpace=wrap;html=1;" vertex="1" parent="u8WKtzOD6fE29-YzB9qV-1">
          <mxGeometry x="110" y="70" width="120" height="60" as="geometry" />
        </mxCell>
        <mxCell id="RpDPlO7MAo3XVQ1fKCgm-2" style="edgeStyle=orthogonalEdgeStyle;rounded=0;orthogonalLoop=1;jettySize=auto;html=1;entryX=0.5;entryY=0;entryDx=0;entryDy=0;" edge="1" parent="u8WKtzOD6fE29-YzB9qV-1" source="RpDPlO7MAo3XVQ1fKCgm-3" target="RpDPlO7MAo3XVQ1fKCgm-7">
          <mxGeometry relative="1" as="geometry" />
        </mxCell>
        <mxCell id="RpDPlO7MAo3XVQ1fKCgm-3" value="n" style="shape=trapezoid;perimeter=trapezoidPerimeter;whiteSpace=wrap;html=1;fixedSize=1;" vertex="1" parent="u8WKtzOD6fE29-YzB9qV-1">
          <mxGeometry x="110" y="160" width="120" height="60" as="geometry" />
        </mxCell>
        <mxCell id="RpDPlO7MAo3XVQ1fKCgm-17" value="" style="edgeStyle=orthogonalEdgeStyle;rounded=0;orthogonalLoop=1;jettySize=auto;html=1;" edge="1" parent="u8WKtzOD6fE29-YzB9qV-1" source="RpDPlO7MAo3XVQ1fKCgm-7" target="RpDPlO7MAo3XVQ1fKCgm-16">
          <mxGeometry relative="1" as="geometry" />
        </mxCell>
        <mxCell id="RpDPlO7MAo3XVQ1fKCgm-7" value="count = 0" style="rounded=0;whiteSpace=wrap;html=1;" vertex="1" parent="u8WKtzOD6fE29-YzB9qV-1">
          <mxGeometry x="110" y="240" width="120" height="60" as="geometry" />
        </mxCell>
        <mxCell id="RpDPlO7MAo3XVQ1fKCgm-19" value="" style="edgeStyle=orthogonalEdgeStyle;rounded=0;orthogonalLoop=1;jettySize=auto;html=1;" edge="1" parent="u8WKtzOD6fE29-YzB9qV-1" source="RpDPlO7MAo3XVQ1fKCgm-16" target="RpDPlO7MAo3XVQ1fKCgm-18">
          <mxGeometry relative="1" as="geometry" />
        </mxCell>
        <mxCell id="RpDPlO7MAo3XVQ1fKCgm-24" style="edgeStyle=orthogonalEdgeStyle;rounded=0;orthogonalLoop=1;jettySize=auto;html=1;exitX=1;exitY=0.5;exitDx=0;exitDy=0;entryX=0.5;entryY=0;entryDx=0;entryDy=0;" edge="1" parent="u8WKtzOD6fE29-YzB9qV-1" source="RpDPlO7MAo3XVQ1fKCgm-16" target="RpDPlO7MAo3XVQ1fKCgm-23">
          <mxGeometry relative="1" as="geometry" />
        </mxCell>
        <mxCell id="RpDPlO7MAo3XVQ1fKCgm-16" value="n &amp;gt; 0" style="rhombus;whiteSpace=wrap;html=1;rounded=0;" vertex="1" parent="u8WKtzOD6fE29-YzB9qV-1">
          <mxGeometry x="130" y="350" width="80" height="80" as="geometry" />
        </mxCell>
        <mxCell id="RpDPlO7MAo3XVQ1fKCgm-21" style="edgeStyle=orthogonalEdgeStyle;rounded=0;orthogonalLoop=1;jettySize=auto;html=1;exitX=0;exitY=0.5;exitDx=0;exitDy=0;entryX=0;entryY=0.5;entryDx=0;entryDy=0;" edge="1" parent="u8WKtzOD6fE29-YzB9qV-1" source="RpDPlO7MAo3XVQ1fKCgm-18" target="RpDPlO7MAo3XVQ1fKCgm-16">
          <mxGeometry relative="1" as="geometry" />
        </mxCell>
        <mxCell id="RpDPlO7MAo3XVQ1fKCgm-18" value="count ++&lt;br&gt;n = n div 10" style="whiteSpace=wrap;html=1;rounded=0;" vertex="1" parent="u8WKtzOD6fE29-YzB9qV-1">
          <mxGeometry x="110" y="480" width="120" height="60" as="geometry" />
        </mxCell>
        <mxCell id="RpDPlO7MAo3XVQ1fKCgm-22" value="DA" style="text;html=1;align=center;verticalAlign=middle;resizable=0;points=[];autosize=1;" vertex="1" parent="u8WKtzOD6fE29-YzB9qV-1">
          <mxGeometry x="140" y="440" width="30" height="20" as="geometry" />
        </mxCell>
        <mxCell id="RpDPlO7MAo3XVQ1fKCgm-27" value="" style="edgeStyle=orthogonalEdgeStyle;rounded=0;orthogonalLoop=1;jettySize=auto;html=1;" edge="1" parent="u8WKtzOD6fE29-YzB9qV-1" source="RpDPlO7MAo3XVQ1fKCgm-23" target="RpDPlO7MAo3XVQ1fKCgm-26">
          <mxGeometry relative="1" as="geometry" />
        </mxCell>
        <mxCell id="RpDPlO7MAo3XVQ1fKCgm-23" value="count" style="verticalLabelPosition=middle;verticalAlign=middle;html=1;shape=trapezoid;perimeter=trapezoidPerimeter;whiteSpace=wrap;size=0.23;arcSize=10;flipV=1;labelPosition=center;align=center;" vertex="1" parent="u8WKtzOD6fE29-YzB9qV-1">
          <mxGeometry x="270" y="480" width="100" height="60" as="geometry" />
        </mxCell>
        <mxCell id="RpDPlO7MAo3XVQ1fKCgm-25" value="NE" style="text;html=1;align=center;verticalAlign=middle;resizable=0;points=[];autosize=1;" vertex="1" parent="u8WKtzOD6fE29-YzB9qV-1">
          <mxGeometry x="240" y="370" width="30" height="20" as="geometry" />
        </mxCell>
        <mxCell id="RpDPlO7MAo3XVQ1fKCgm-26" value="Kraj" style="ellipse;whiteSpace=wrap;html=1;arcSize=10;" vertex="1" parent="u8WKtzOD6fE29-YzB9qV-1">
          <mxGeometry x="260" y="590" width="120" height="80" as="geometry" />
        </mxCell>
      </root>
    </mxGraphModel>
  </diagram>
</mxfile>
